<svg class="animated" id="freepik_stories-pizza-maker" xmlns="http://www.w3.org/2000/svg" viewBox="0 0 500 500" version="1.1" xmlns:xlink="http://www.w3.org/1999/xlink" xmlns:svgjs="http://svgjs.com/svgjs"><style>svg#freepik_stories-pizza-maker:not(.animated) .animable {opacity: 0;}svg#freepik_stories-pizza-maker.animated #freepik--background-complete--inject-399 {animation: 1s 1 forwards cubic-bezier(.36,-0.01,.5,1.38) fadeIn;animation-delay: 0s;}svg#freepik_stories-pizza-maker.animated #freepik--Oven--inject-399 {animation: 1s 1 forwards cubic-bezier(.36,-0.01,.5,1.38) slideLeft;animation-delay: 0s;}svg#freepik_stories-pizza-maker.animated #freepik--Peel--inject-399 {animation: 1s 1 forwards cubic-bezier(.36,-0.01,.5,1.38) slideRight;animation-delay: 0s;}svg#freepik_stories-pizza-maker.animated #freepik--Character--inject-399 {animation: 1s 1 forwards cubic-bezier(.36,-0.01,.5,1.38) zoomOut;animation-delay: 0s;}svg#freepik_stories-pizza-maker.animated #freepik--Pizza--inject-399 {animation: 1s 1 forwards cubic-bezier(.36,-0.01,.5,1.38) slideRight;animation-delay: 0s;}svg#freepik_stories-pizza-maker.animated #freepik--Table--inject-399 {animation: 1s 1 forwards cubic-bezier(.36,-0.01,.5,1.38) zoomIn;animation-delay: 0s;}svg#freepik_stories-pizza-maker.animated #freepik--Shadow--inject-399 {animation: 1s 1 forwards cubic-bezier(.36,-0.01,.5,1.38) fadeIn;animation-delay: 0s;}svg#freepik_stories-pizza-maker.animated #freepik--Tools--inject-399 {animation: 1.5s 1 forwards cubic-bezier(.36,-0.01,.5,1.38) lightSpeedRight;animation-delay: 0s;}svg#freepik_stories-pizza-maker.animated #freepik--Tomatoes--inject-399 {animation: 1s 1 forwards cubic-bezier(.36,-0.01,.5,1.38) fadeIn,1.5s Infinite  linear shake;animation-delay: 0s,1s;}svg#freepik_stories-pizza-maker.animated #freepik--Oil--inject-399 {animation: 1s 1 forwards cubic-bezier(.36,-0.01,.5,1.38) slideRight;animation-delay: 0s;}            @keyframes fadeIn {                0% {                    opacity: 0;                }                100% {                    opacity: 1;                }            }                    @keyframes slideLeft {                0% {                    opacity: 0;                    transform: translateX(-30px);                }                100% {                    opacity: 1;                    transform: translateX(0);                }            }                    @keyframes slideRight {                0% {                    opacity: 0;                    transform: translateX(30px);                }                100% {                    opacity: 1;                    transform: translateX(0);                }            }                    @keyframes zoomOut {                0% {                    opacity: 0;                    transform: scale(1.5);                }                100% {                    opacity: 1;                    transform: scale(1);                }            }                    @keyframes zoomIn {                0% {                    opacity: 0;                    transform: scale(0.5);                }                100% {                    opacity: 1;                    transform: scale(1);                }            }                    @keyframes lightSpeedRight {              from {                transform: translate3d(50%, 0, 0) skewX(-20deg);                opacity: 0;              }              60% {                transform: skewX(10deg);                opacity: 1;              }              80% {                transform: skewX(-2deg);              }              to {                opacity: 1;                transform: translate3d(0, 0, 0);              }            }                    @keyframes shake {                10%, 90% {                    transform: translate3d(-1px, 0, 0);                  }                  20%, 80% {                    transform: translate3d(2px, 0, 0);                  }                  30%, 50%, 70% {                    transform: translate3d(-4px, 0, 0);                  }                  40%, 60% {                    transform: translate3d(4px, 0, 0);                  }            }        </style><g id="freepik--background-complete--inject-399" class="animable" style="transform-origin: 250px 235.185px;"><polygon points="47.48 254.98 98.11 254.73 148.74 254.65 250 254.48 351.26 254.64 401.89 254.73 452.52 254.98 401.89 255.22 351.26 255.31 250 255.47 148.74 255.31 98.11 255.22 47.48 254.98" style="fill: rgb(235, 235, 235); transform-origin: 250px 254.975px;" id="elh97cokdl5fk" class="animable"></polygon><polygon points="47.48 220.42 98.11 220.18 148.74 220.09 250 219.92 351.26 220.09 401.89 220.18 452.52 220.42 401.89 220.67 351.26 220.75 250 220.92 148.74 220.75 98.11 220.67 47.48 220.42" style="fill: rgb(235, 235, 235); transform-origin: 250px 220.42px;" id="elcu47wpei2n" class="animable"></polygon><polygon points="47.48 185.87 98.11 185.63 148.74 185.54 250 185.37 351.26 185.54 401.89 185.62 452.52 185.87 401.89 186.11 351.26 186.2 250 186.37 148.74 186.2 98.11 186.11 47.48 185.87" style="fill: rgb(235, 235, 235); transform-origin: 250px 185.87px;" id="eluwwira7wbye" class="animable"></polygon><polygon points="47.48 151.32 98.11 151.07 148.74 150.98 250 150.82 351.26 150.98 401.89 151.07 452.52 151.32 401.89 151.56 351.26 151.65 250 151.81 148.74 151.65 98.11 151.56 47.48 151.32" style="fill: rgb(235, 235, 235); transform-origin: 250px 151.315px;" id="el4fw4n64afoi" class="animable"></polygon><polygon points="47.48 116.76 98.11 116.52 148.74 116.43 250 116.26 351.26 116.43 401.89 116.52 452.52 116.76 401.89 117.01 351.26 117.09 250 117.26 148.74 117.09 98.11 117 47.48 116.76" style="fill: rgb(235, 235, 235); transform-origin: 250px 116.76px;" id="el92dr6o3kitr" class="animable"></polygon><polygon points="47.48 82.21 98.11 81.97 148.74 81.88 250 81.71 351.26 81.88 401.89 81.96 452.52 82.21 401.89 82.45 351.26 82.54 250 82.71 148.74 82.54 98.11 82.45 47.48 82.21" style="fill: rgb(235, 235, 235); transform-origin: 250px 82.21px;" id="ela26rn0u71mh" class="animable"></polygon><polygon points="47.48 289.56 98.11 289.32 148.74 289.23 250 289.06 351.26 289.23 401.89 289.32 452.52 289.56 401.89 289.81 351.26 289.89 250 290.06 148.74 289.89 98.11 289.8 47.48 289.56" style="fill: rgb(235, 235, 235); transform-origin: 250px 289.56px;" id="el2rtkizrs3rn" class="animable"></polygon><polygon points="47.48 324.14 98.11 323.9 148.74 323.81 250 323.65 351.26 323.81 401.89 323.9 452.52 324.14 401.89 324.39 351.26 324.48 250 324.64 148.74 324.48 98.11 324.39 47.48 324.14" style="fill: rgb(235, 235, 235); transform-origin: 250px 324.145px;" id="elmn6jd5xppec" class="animable"></polygon><polygon points="47.48 358.73 98.11 358.49 148.74 358.4 250 358.23 351.26 358.4 401.89 358.48 452.52 358.73 401.89 358.97 351.26 359.06 250 359.23 148.74 359.06 98.11 358.97 47.48 358.73" style="fill: rgb(235, 235, 235); transform-origin: 250px 358.73px;" id="elg66vctol59q" class="animable"></polygon><polygon points="47.48 393.31 98.11 393.07 148.74 392.98 250 392.81 351.26 392.98 401.89 393.07 452.52 393.31 401.89 393.56 351.26 393.65 250 393.81 148.74 393.64 98.11 393.56 47.48 393.31" style="fill: rgb(235, 235, 235); transform-origin: 250px 393.31px;" id="eldy9rx87xsi" class="animable"></polygon><rect x="47.48" y="289.06" width="405.03" height="34.58" style="fill: rgb(219, 219, 219); transform-origin: 249.995px 306.35px;" id="elp7yfihb69d9" class="animable"></rect><polygon points="284.58 44.4 284.83 84.47 284.92 114.54 285.08 305.68 284.92 365.83 284.83 395.9 284.58 425.97 284.34 395.9 284.25 365.83 284.08 305.68 284.25 114.54 284.34 84.47 284.58 44.4" style="fill: rgb(235, 235, 235); transform-origin: 284.58px 235.185px;" id="eltjlkp10n81" class="animable"></polygon><polygon points="250 44.4 250.24 84.47 250.33 114.54 250.5 305.68 250.33 365.83 250.25 395.9 250 425.97 249.75 395.9 249.67 365.83 249.5 305.68 249.67 114.54 249.76 84.47 250 44.4" style="fill: rgb(235, 235, 235); transform-origin: 250px 235.185px;" id="elpzw8e7o1oo" class="animable"></polygon><polygon points="215.42 44.4 215.66 84.47 215.75 114.54 215.91 305.68 215.75 365.83 215.66 395.9 215.42 425.97 215.17 395.9 215.08 365.83 214.92 305.68 215.08 114.54 215.17 84.47 215.42 44.4" style="fill: rgb(235, 235, 235); transform-origin: 215.415px 235.185px;" id="elnll1tlsecaj" class="animable"></polygon><polygon points="180.83 44.4 181.07 84.47 181.16 114.54 181.33 305.68 181.16 365.83 181.08 395.9 180.83 425.97 180.59 395.9 180.5 365.83 180.33 305.68 180.5 114.54 180.59 84.47 180.83 44.4" style="fill: rgb(235, 235, 235); transform-origin: 180.83px 235.185px;" id="elro6fwxj34pt" class="animable"></polygon><polygon points="388.34 44.4 388.58 84.47 388.67 114.54 388.84 305.68 388.67 365.83 388.58 395.9 388.34 425.97 388.09 395.9 388 365.83 387.84 305.68 388.01 114.54 388.09 84.47 388.34 44.4" style="fill: rgb(235, 235, 235); transform-origin: 388.34px 235.185px;" id="el80e5mh5nrmw" class="animable"></polygon><polygon points="353.75 44.4 354 84.47 354.08 114.54 354.25 305.68 354.08 365.83 354 395.9 353.75 425.97 353.51 395.9 353.42 365.83 353.25 305.68 353.42 114.54 353.51 84.47 353.75 44.4" style="fill: rgb(235, 235, 235); transform-origin: 353.75px 235.185px;" id="el52723gf0qpj" class="animable"></polygon><polygon points="319.17 44.4 319.41 84.47 319.5 114.54 319.67 305.68 319.5 365.83 319.41 395.9 319.17 425.97 318.92 395.9 318.84 365.83 318.67 305.68 318.84 114.54 318.93 84.47 319.17 44.4" style="fill: rgb(235, 235, 235); transform-origin: 319.17px 235.185px;" id="elfyz452yo0k7" class="animable"></polygon><polygon points="422.92 44.4 423.16 84.47 423.25 114.54 423.42 305.68 423.25 365.83 423.17 395.9 422.92 425.97 422.68 395.9 422.59 365.83 422.42 305.68 422.59 114.54 422.68 84.47 422.92 44.4" style="fill: rgb(235, 235, 235); transform-origin: 422.92px 235.185px;" id="elqxsc89b78jr" class="animable"></polygon><polygon points="388.34 44.4 388.58 84.47 388.67 114.54 388.84 305.68 388.67 365.83 388.58 395.9 388.34 425.97 388.09 395.9 388 365.83 387.84 305.68 388.01 114.54 388.09 84.47 388.34 44.4" style="fill: rgb(235, 235, 235); transform-origin: 388.34px 235.185px;" id="elkwvzewdgfk" class="animable"></polygon><polygon points="146.25 44.4 146.49 84.47 146.58 114.54 146.75 305.68 146.58 365.83 146.49 395.9 146.25 425.97 146 395.9 145.91 365.83 145.75 305.68 145.92 114.54 146 84.47 146.25 44.4" style="fill: rgb(235, 235, 235); transform-origin: 146.25px 235.185px;" id="el6nrz3bty8b3" class="animable"></polygon><polygon points="111.66 44.4 111.91 84.47 111.99 114.54 112.16 305.68 112 365.83 111.91 395.9 111.66 425.97 111.42 395.9 111.33 365.83 111.16 305.68 111.33 114.54 111.42 84.47 111.66 44.4" style="fill: rgb(235, 235, 235); transform-origin: 111.66px 235.185px;" id="el24u7uxzr71b" class="animable"></polygon><polygon points="77.08 44.4 77.32 84.47 77.41 114.54 77.58 305.68 77.41 365.83 77.32 395.9 77.08 425.97 76.83 395.9 76.75 365.83 76.58 305.68 76.75 114.54 76.83 84.47 77.08 44.4" style="fill: rgb(235, 235, 235); transform-origin: 77.08px 235.185px;" id="eln4q9bsbeswe" class="animable"></polygon><rect x="54.64" y="66.61" width="160" height="12.31" style="fill: rgb(235, 235, 235); transform-origin: 134.64px 72.765px;" id="elas1u0857m1f" class="animable"></rect><path d="M195.11,192.83a10.39,10.39,0,0,1-7.48-3.74c-4.31-4.7-6.6-12.9-6-21.41.42-5.75,3.1-13.14,5.69-20.28s5.1-14.08,5.16-18.82l.72-56,3.43,0,0,1.31-2.12,0-.7,54.69c-.06,5-2.58,11.9-5.24,19.25-2.56,7.06-5.21,14.35-5.61,19.93-.6,8.16,1.56,16,5.64,20.42a9.08,9.08,0,0,0,6.53,3.32Z" style="fill: rgb(235, 235, 235); transform-origin: 189.083px 132.705px;" id="el2la7cmtcwdr" class="animable"></path><path d="M198.15,192.32a8.59,8.59,0,0,1-3,.51l0-1.31a9.13,9.13,0,0,0,6.61-3.15c4.19-4.34,6.55-12.1,6.16-20.27-.27-5.59-2.73-12.95-5.1-20.07-2.48-7.42-4.82-14.42-4.75-19.38L198.74,74l-2.11,0,0-1.31,3.42,0-.71,56c-.06,4.74,2.24,11.64,4.68,18.94s4.89,14.66,5.17,20.43c.4,8.51-2.1,16.65-6.53,21.24A11.8,11.8,0,0,1,198.15,192.32Z" style="fill: rgb(235, 235, 235); transform-origin: 202.191px 132.76px;" id="eldksy5b6t6am" class="animable"></path><path d="M195.11,192.83a5.13,5.13,0,0,1-3.67-1.86c-3.65-3.9-5.76-13.23-5.24-23.21.3-5.73,2.08-13.11,3.8-20.25s3.4-14.14,3.47-18.92l.71-56,2.47,0,0,1.31-1.15,0-.7,54.69c-.07,4.92-1.74,11.86-3.51,19.2-1.7,7.09-3.46,14.41-3.76,20-.49,9.51,1.52,18.66,4.89,22.26a3.92,3.92,0,0,0,2.73,1.44Z" style="fill: rgb(235, 235, 235); transform-origin: 191.386px 132.71px;" id="elrqdmi2b7a5" class="animable"></path><path d="M196.56,192.59a4.05,4.05,0,0,1-1.45.24h-.65L196,72.62l3.12,0-.72,56c-.06,4.77,1.42,11.68,3,19s3.13,14.61,3.28,20.34c.27,10-2.08,19.27-5.83,23.08A6.09,6.09,0,0,1,196.56,192.59Zm-.78-1.14a4.46,4.46,0,0,0,2.11-1.3c3.46-3.51,5.71-12.61,5.45-22.12-.15-5.62-1.72-13-3.25-20.11-1.58-7.38-3.07-14.36-3-19.28l.7-54.69h-.5Z" style="fill: rgb(235, 235, 235); transform-origin: 199.581px 132.725px;" id="elp203auar1jn" class="animable"></path><polygon points="191.05 70 190.49 114.21 201.74 114.35 202.31 69.89 191.05 70" style="fill: rgb(166, 166, 166); transform-origin: 196.4px 92.12px;" id="el6vay5b6mc5m" class="animable"></polygon><rect x="132.27" y="101.55" width="4.75" height="60.04" style="fill: rgb(235, 235, 235); transform-origin: 134.645px 131.57px;" id="el30zq8hgri88" class="animable"></rect><path d="M147.5,159H121.78l-1.31,35.88h28.35Zm-18.25,31.67h-2.67V164.1h2.67Zm6.72,0h-2.66V164.1H136Zm6.72,0H140V164.1h2.66Z" style="fill: rgb(235, 235, 235); transform-origin: 134.645px 176.94px;" id="elupl22bbabb9" class="animable"></path><polygon points="129.82 70 129.25 114.21 140.51 114.35 141.07 69.89 129.82 70" style="fill: rgb(166, 166, 166); transform-origin: 135.16px 92.12px;" id="elg9376rzpgmk" class="animable"></polygon><path d="M75.28,129.78V101H67.8v87.79h36.08v-59Zm21.35,10.34A2.15,2.15,0,1,1,98.78,138,2.14,2.14,0,0,1,96.63,140.12Z" style="fill: rgb(235, 235, 235); transform-origin: 85.84px 144.895px;" id="ely1bukj29at" class="animable"></path><polygon points="66.76 70 66.19 114.21 77.45 114.35 78.02 69.89 66.76 70" style="fill: rgb(166, 166, 166); transform-origin: 72.105px 92.12px;" id="elkbsqwjn7j3f" class="animable"></polygon></g><g id="freepik--Oven--inject-399" class="animable" style="transform-origin: 351.27px 234.52px;"><rect x="314.61" y="43.04" width="73.34" height="215.59" style="fill: rgb(55, 71, 79); transform-origin: 351.28px 150.835px;" id="elhhm0cf124oq" class="animable"></rect><path d="M469.27,426h-236c0-132.51,25-196.31,118-196.31S469.27,293.49,469.27,426Z" style="fill: rgb(69, 90, 100); transform-origin: 351.27px 327.845px;" id="elmaatu2q8ixd" class="animable"></path><path d="M442.14,327.87l-90.58.59L306,328.7l-45.61.1h-1.13l.22-1.12a156.44,156.44,0,0,1,9.71-32.23,81.88,81.88,0,0,1,19.14-27.7,72.56,72.56,0,0,1,29.52-16.13c10.87-3.11,22.19-4.14,33.4-4.16a120.76,120.76,0,0,1,33.34,4.35,72.28,72.28,0,0,1,29.3,16.24c8.27,7.69,14.38,17.41,18.81,27.67A153.54,153.54,0,0,1,442.14,327.87Zm0,0a158.76,158.76,0,0,0-10-31.9,82.09,82.09,0,0,0-19-27.11,71.07,71.07,0,0,0-28.95-15.69c-10.68-3-21.85-4-33-4s-22.26,1.13-32.89,4.2a70.75,70.75,0,0,0-28.72,15.8c-8.11,7.5-14.17,17-18.65,27.09a155,155,0,0,0-9.69,31.8l-.91-1.11,45.25.09,45.33.24Z" style="fill: rgb(55, 71, 79); transform-origin: 350.7px 288.127px;" id="elqcxhqxq6oh" class="animable"></path><path d="M351.29,249.31q.57,9.76.77,19.54c.16,6.52.21,13,.23,19.55s-.06,13-.22,19.54-.4,13-.78,19.55q-.59-9.78-.78-19.55c-.16-6.51-.21-13-.22-19.54s.06-13,.22-19.55S350.9,255.82,351.29,249.31Z" style="fill: rgb(55, 71, 79); transform-origin: 351.291px 288.4px;" id="eli0guev6pan" class="animable"></path><rect x="334.06" y="285.44" width="6.64" height="25.02" style="fill: rgb(55, 71, 79); transform-origin: 337.38px 297.95px;" id="elkhnw73xbszr" class="animable"></rect><rect x="361.86" y="285.44" width="6.64" height="25.02" style="fill: rgb(55, 71, 79); transform-origin: 365.18px 297.95px;" id="elxr6efpbf0sn" class="animable"></rect><rect x="304.61" y="346.94" width="93.34" height="4.88" style="fill: rgb(55, 71, 79); transform-origin: 351.28px 349.38px;" id="el8ve6qot7rg5" class="animable"></rect><rect x="304.61" y="355.15" width="93.34" height="4.88" style="fill: rgb(55, 71, 79); transform-origin: 351.28px 357.59px;" id="elx5kchw131gm" class="animable"></rect><rect x="304.61" y="363.35" width="93.34" height="4.88" style="fill: rgb(55, 71, 79); transform-origin: 351.28px 365.79px;" id="el5nnd9ze4b64" class="animable"></rect><rect x="304.61" y="371.55" width="93.34" height="4.88" style="fill: rgb(55, 71, 79); transform-origin: 351.28px 373.99px;" id="el07lm27u7b2p" class="animable"></rect><rect x="304.61" y="379.76" width="93.34" height="4.88" style="fill: rgb(55, 71, 79); transform-origin: 351.28px 382.2px;" id="eldtuqzizml9" class="animable"></rect><rect x="304.61" y="387.96" width="93.34" height="4.88" style="fill: rgb(55, 71, 79); transform-origin: 351.28px 390.4px;" id="elwf4oj4kohb" class="animable"></rect><path d="M364.77,379.76H349.61c-1.63,1.29-4.73,3.33-6.46,4.87h21.53c.14-.44.27-.8.36-1.05A10,10,0,0,0,364.77,379.76Zm7.78,0h-3.47c-.52,1.36-1.35,3.23-2,4.87h5A26.88,26.88,0,0,0,372.55,379.76Zm-3.67-8.21h-.69a50.23,50.23,0,0,1,1.21,4.88h2C370.7,374.84,369.71,373,368.88,371.55Zm3.69,12.57s0,.19,0,.51h.4C372.74,384.31,372.57,384.12,372.57,384.12Zm3.56,5.36a5.61,5.61,0,0,0-.7-1.52h-2.76a2.35,2.35,0,0,1-.1.79c-.28.5-1.19,1.46-1.41,1.29a9.7,9.7,0,0,1,.28-2.08h-5.27a18.78,18.78,0,0,0,.83,4.88h8.62A8.57,8.57,0,0,0,376.13,389.48Zm-49.54-9.72a5,5,0,0,0-.39,1.72c.05.72.24,1.86.48,3.15h10.17a38.15,38.15,0,0,1,1.55-4.87Zm9-8.21h-5.11c-.86,1.63-1.75,3.34-2.49,4.88h9.66C337.07,374.9,336.23,373,335.63,371.55Zm-3.39-16.4-.19-.19.07.19c.24.65,1,2.77,1.57,4.87h2.74C335,358.07,332.88,355.84,332.24,355.15Zm2.06,8.2a3,3,0,0,1-.09,1,37.8,37.8,0,0,1-1.92,3.84h2.91c.71-1.36,2.31-3.56,2.73-4.88Zm29.31,29.08c-.57-.61-.32-2.54.14-4.47H327.33a43.23,43.23,0,0,1,.82,4.88h5.25c.38-1.39.75-2.49.75-2.49a9.38,9.38,0,0,1,1.21,2.49h28.72A3.07,3.07,0,0,1,363.61,392.43Zm1.16-12.67H341l-1.32.79c-1.35.83-2.2,2.93-2.58,4.08h27.63c.14-.44.27-.8.36-1.05A10,10,0,0,0,364.77,379.76ZM351.35,358.9c-.52-.62-.49-2.3-.35-3.75h-1.09c-.81,1.38-1.83,3.18-2.68,4.87h5.43A7.62,7.62,0,0,1,351.35,358.9Zm-5.6,4.45a4.94,4.94,0,0,0-.25,1,6.78,6.78,0,0,0,.91,3.84h7c.41-1.28,2.32-3.7,2.69-4.88Zm16.87,9.2a5.31,5.31,0,0,0-2-1H346.86a37.15,37.15,0,0,1-1.8,4.88H364A16.77,16.77,0,0,0,362.62,372.55Z" style="fill: rgb(0, 255, 136); transform-origin: 351.17px 373.9px;" id="elr8ijatq9kgr" class="animable"></path><path d="M337.93,355.15c.19.71.36,1.29.38,1.38a18.84,18.84,0,0,1-1.67-1.38Z" style="fill: rgb(0, 255, 136); transform-origin: 337.475px 355.84px;" id="elfrfnpc9cxb6" class="animable"></path><path d="M339.22,346.94c-.49,1.73-1.57,3.69-1.88,4.88h-3s0-.07,0-.11c-.07-1.17.7-3,1.35-4.77Z" style="fill: rgb(0, 255, 136); transform-origin: 336.778px 349.38px;" id="elfaaqcxciend" class="animable"></path><path d="M362.58,365.68c-.27.95-.58,1.89-.82,2.55h-.62a9.91,9.91,0,0,1-.5-2.87,4.74,4.74,0,0,1,1-2h.73A3.1,3.1,0,0,1,362.58,365.68Z" style="fill: rgb(0, 255, 136); transform-origin: 361.677px 365.795px;" id="eldwpj76nirr6" class="animable"></path><path d="M372.2,363.35c-.21,1.46-.82,3.85-1.09,4.88h-.45a16.69,16.69,0,0,1-1.82-4.88Z" style="fill: rgb(0, 255, 136); transform-origin: 370.52px 365.79px;" id="elsiuvjgjce2" class="animable"></path><path d="M371.46,357.13a18.22,18.22,0,0,0,.41,2.89H369a16.4,16.4,0,0,1,1.42-4,3.07,3.07,0,0,1,.77-.83h1.06A5.74,5.74,0,0,0,371.46,357.13Z" style="fill: rgb(0, 255, 136); transform-origin: 370.625px 357.605px;" id="elb4w7dnsjnee" class="animable"></path><path d="M353.54,355.15h.19l-.23.17S353.51,355.26,353.54,355.15Z" style="fill: rgb(0, 255, 136); transform-origin: 353.615px 355.235px;" id="elrzurgmlfo7m" class="animable"></path><path d="M359.65,346.94a5.56,5.56,0,0,1-.38,2.19,12.17,12.17,0,0,1-1.89,2.69H354.1a10.87,10.87,0,0,0,.16-3.28c-.38-1.35-4.43,0-5.44.82a19.78,19.78,0,0,0-2.22,2.46h-1.35a10.83,10.83,0,0,1-1.8-4.88Z" style="fill: rgb(0, 255, 136); transform-origin: 351.551px 349.38px;" id="el3qzyuh3utu3" class="animable"></path><path d="M341.83,365.81c-.28.75-.55,1.71-.73,2.42H338c.64-1.56,2.5-3.59,2.62-4.27a2.54,2.54,0,0,0,0-.61h.9A4.32,4.32,0,0,1,341.83,365.81Z" style="fill: rgb(0, 255, 136); transform-origin: 339.945px 365.79px;" id="elkdvne4j979" class="animable"></path><path d="M338.69,371.55h4.16a30.09,30.09,0,0,1-2.7,3,10.92,10.92,0,0,0,0-1.39c0-.51-.36-.22-1-1A6,6,0,0,1,338.69,371.55Z" style="fill: rgb(0, 255, 136); transform-origin: 340.77px 373.05px;" id="el4ad5k0lcjc6" class="animable"></path><path d="M343.51,368.23h-1.59a1,1,0,0,0,.16-.27,15.1,15.1,0,0,0,.43-1.48A7.52,7.52,0,0,1,343.51,368.23Z" style="fill: rgb(0, 255, 136); transform-origin: 342.715px 367.355px;" id="el51mr8d30zzl" class="animable"></path><g id="elyrkxmp6hshn"><g style="opacity: 0.4; transform-origin: 350.349px 369.885px;" class="animable"><path d="M350.5,376.43a28.4,28.4,0,0,0-1.16-3.43,45,45,0,0,1,3.75,3.43Z" style="fill: rgb(255, 255, 255); transform-origin: 351.215px 374.715px;" id="ellnr08t0jllq" class="animable"></path><path d="M355.07,384.63H343.15c1.73-1.54,4.83-3.58,6.46-4.87h6.06a2.56,2.56,0,0,1,.16.4C356.21,381.35,355.72,383.05,355.07,384.63Z" style="fill: rgb(255, 255, 255); transform-origin: 349.557px 382.195px;" id="elceqq22c1pa" class="animable"></path><path d="M358,384.63h-1.74a11.86,11.86,0,0,1,2.4-3.37A5.31,5.31,0,0,0,358,384.63Z" style="fill: rgb(255, 255, 255); transform-origin: 357.46px 382.945px;" id="elazg6jrtu21w" class="animable"></path><path d="M361.14,391.43a8.12,8.12,0,0,1-.44,1.41H341.55c.18-.93.05-3.11.14-4.88h11.89a2.24,2.24,0,0,0-.23.78c0,.92,2,3.67,2,3.67a7.64,7.64,0,0,0,1.55-3.67,4.84,4.84,0,0,0,0-.78h3.25A5.34,5.34,0,0,1,361.14,391.43Z" style="fill: rgb(255, 255, 255); transform-origin: 351.351px 390.4px;" id="ele349k3x2fiu" class="animable"></path><path d="M348.13,346.94h2.67a12.35,12.35,0,0,0-2.05,1.51C348.71,348.36,348.42,347.73,348.13,346.94Z" style="fill: rgb(255, 255, 255); transform-origin: 349.465px 347.695px;" id="el0y1u7hw75h2" class="animable"></path><path d="M356.55,346.94a8.68,8.68,0,0,1-1.31,2.12,7,7,0,0,0-.87-2.12Z" style="fill: rgb(255, 255, 255); transform-origin: 355.46px 348px;" id="elg9hvnf2dinu" class="animable"></path><path d="M337.28,346.94c-.25,1.27-.85,4.18-1,4.87h-1.1a1,1,0,0,1,0-.17c0-1.07,1.28-3.56,1.9-4.71Z" style="fill: rgb(255, 255, 255); transform-origin: 336.228px 349.37px;" id="elr0alz02f4d" class="animable"></path><path d="M337.4,355.15h0Z" style="fill: rgb(255, 255, 255); transform-origin: 337.4px 355.15px;" id="el6jdzeauc43t" class="animable"></path><path d="M372.27,391.31s-.21.7-.41,1.53H371C371.68,392,372.27,391.31,372.27,391.31Z" style="fill: rgb(255, 255, 255); transform-origin: 371.635px 392.075px;" id="elm0vfgdftptl" class="animable"></path><path d="M329.79,388h3.55c-1,2-2.16,3.92-2.16,3.92S330.48,390.07,329.79,388Z" style="fill: rgb(255, 255, 255); transform-origin: 331.565px 389.96px;" id="el6rymwphwmjq" class="animable"></path><path d="M332,376.43h-1.67c1-2.32,1.89-4.43,1.89-4.43S332.14,374.31,332,376.43Z" style="fill: rgb(255, 255, 255); transform-origin: 331.275px 374.215px;" id="elct7acgouvza" class="animable"></path><path d="M334.63,384.63H328.8a8.65,8.65,0,0,1-.37-2.69,12.87,12.87,0,0,1,.62-2.18h2.64c-.29,1.06.54,4.26.54,4.26a25.84,25.84,0,0,0,1.28-3.15,3.89,3.89,0,0,0,0-1.11h.41A13.74,13.74,0,0,1,334.63,384.63Z" style="fill: rgb(255, 255, 255); transform-origin: 331.533px 382.195px;" id="eliqozt0oql3k" class="animable"></path></g></g></g><g id="freepik--Peel--inject-399" class="animable" style="transform-origin: 415.06px 305.89px;"><rect x="411.7" y="263.15" width="6.72" height="162.88" style="fill: rgb(0, 255, 136); transform-origin: 415.06px 344.59px;" id="eleztwtshde2i" class="animable"></rect><path d="M456.11,257.15c0,6.6-3.79,10.79-11.05,11.76-10.09,1.37-30,1.37-30,1.37s-19.9,0-30-1.37c-7.26-1-11.05-5.16-11.05-11.76,0-3,5.38-71.4,5.38-71.4h71.34S456.11,254.14,456.11,257.15Z" style="fill: rgb(0, 255, 136); transform-origin: 415.06px 228.015px;" id="elfbuocyt3d0p" class="animable"></path><g id="el6btcu5kghoe"><g style="opacity: 0.1; transform-origin: 415.065px 305.875px;" class="animable"><path d="M456.11,257.15c0,6.6-3.79,10.79-11.05,11.76-7.53,1-20.52,1.28-26.63,1.35V426H411.7V270.25c-6.11-.06-19.1-.32-26.63-1.34-7.26-1-11.05-5.16-11.05-11.76,0-3,5.37-71.4,5.37-71.4h71.35S456.11,254.14,456.11,257.15Z" id="el0p2ybetwzf7" class="animable" style="transform-origin: 415.065px 305.875px;"></path></g></g></g><g id="freepik--Character--inject-399" class="animable" style="transform-origin: 240.002px 252.289px;"><path d="M211.39,362.43s0,0,0,.11,0,0,0,.08,0,.13,0,.22l0,.14a2.14,2.14,0,0,1,.06.31,2.07,2.07,0,0,0,0,.22c0,.16,0,.33.09.53s.12.64.19,1l.35,1.94q.06.31.12.66c.06.3.11.62.18.94s.13.73.2,1.12v0c.05.27.11.55.16.83.15.85.31,1.76.49,2.73a.15.15,0,0,1,0,.07c.19,1.08.4,2.24.62,3.45.06.32.12.64.19,1l.18,1s0,0,0,0c0,.21.07.42.12.64h0c.3,1.7.63,3.48,1,5.37.11.64.23,1.28.34,1.93.24,1.28.47,2.58.72,3.92.06.31.12.62.17.94q.53,2.92,1.1,6.07c0,.21.08.43.12.64.18,1,.37,2,.54,3a2,2,0,0,1,0,.24c.09.47.17,1,.26,1.44.35,1.94.71,3.93,1.08,5.95.1.5.19,1,.28,1.53.18,1,.37,2.05.56,3.09.24,1.3.48,2.6.72,3.93s.47,2.65.72,4c.13.67.25,1.35.37,2s.3,1.62.44,2.44h68.58c-8.47-35.19-15.61-63.54-15.61-63.54Z" style="fill: rgb(55, 71, 79); transform-origin: 251.365px 394.14px;" id="elc6s62w1noz" class="animable"></path><path d="M221.77,370.35q5.16,27.81,10.42,55.62h.95c-3.64-18.58-7.4-37.13-11.14-55.69C222,370.13,221.74,370.2,221.77,370.35Z" style="fill: rgb(38, 50, 56); transform-origin: 227.454px 398.083px;" id="el9edn8bm20a7" class="animable"></path><path d="M211.4,362.43a.5.5,0,0,1,0,.11s0,0,0,.08,0,.13,0,.22l0,.14a2.14,2.14,0,0,1,.06.31,2.07,2.07,0,0,0,0,.22c0,.16.06.33.09.53s.12.64.19,1c.11.56.22,1.21.35,1.94q.06.31.12.66c.06.3.11.62.18.94s.13.73.2,1.12v0c.05.27.11.55.16.83.15.85.31,1.76.49,2.73a.15.15,0,0,1,0,.07c.2,1.08.41,2.22.63,3.44.07.32.12.64.18,1l.18,1s0,0,0,0c0,.21.08.42.12.64h0c.31,1.69.63,3.48,1,5.37.11.64.23,1.28.34,1.93.24,1.28.48,2.58.72,3.92.06.31.12.62.17.94.36,1.95.73,4,1.1,6.07,0,.21.08.43.12.64.18,1,.37,2,.54,3a2,2,0,0,1,0,.24c.09.47.17,1,.26,1.44.36,1.94.72,3.93,1.08,5.95.1.5.19,1,.28,1.53.19,1,.37,2.05.56,3.09.24,1.3.48,2.6.72,3.93s.48,2.65.72,4c.13.67.25,1.35.37,2L223,426h34.37l2.76-28.22.1-1,.11-1.08h0l.54-5.52h0l.47-4.78,2.24-22.92Z" style="fill: rgb(38, 50, 56); transform-origin: 237.495px 394.215px;" id="el0d3acqm4zzhl" class="animable"></path><path d="M169.38,426h77.05c.13-6.82.26-13.41.43-19.63h0c0-.15,0-.3,0-.45s8.64-5.12,13.3-9.13a16.35,16.35,0,0,0,2.17-2.16v0h0c3-3.8,6-18.4,12.15-32.14H179.31C171,381.49,167.24,414,169.38,426Z" style="fill: rgb(55, 71, 79); transform-origin: 221.635px 394.245px;" id="el2q4wwwdmryw" class="animable"></path><path d="M264.5,393.61c-4.41,1.8-8.37,4.58-12.28,7.25-4.07,2.78-7.79,6-11.7,9-.15.11,0,.36.16.25,4.12-2.63,8.43-4.94,12.51-7.65s8.07-5.19,11.5-8.5A.19.19,0,0,0,264.5,393.61Z" style="fill: rgb(38, 50, 56); transform-origin: 252.625px 401.862px;" id="elaknjom6o2m" class="animable"></path><path d="M265.05,368.14c-.52,2.82-1.21,5.61-1.82,8.41-.57,2.63-1,5.32-1.68,7.92a13.5,13.5,0,0,1-3.69,6.63c-1,1-2.17,1.8-3.27,2.68-.59.48-1.23.93-1.85,1.41.08-.37.15-.75.22-1.13l.54-3.21q.6-3.57,1.15-7.14c.71-4.68,1.37-9.4,2.35-14a.15.15,0,0,0-.29-.07c-1.17,4.59-2.46,9.13-3.47,13.76-.5,2.27-2.28,13.48-2.36,14.27s-.15,1.64-.17,2.47a10,10,0,0,0,0,2.51.2.2,0,0,0,.38,0h0a10.21,10.21,0,0,0,.71-2.44c.2-.8.39-1.61.53-2.43,0-.29.09-.59.13-.89,1.11-.67,2.14-1.56,3.17-2.3s2.24-1.6,3.3-2.48a12.68,12.68,0,0,0,4-6.29,45.63,45.63,0,0,0,1.32-8.06c.36-3.18.62-6.38,1.06-9.56C265.37,368,265.09,368,265.05,368.14Z" style="fill: rgb(38, 50, 56); transform-origin: 257.975px 385.415px;" id="eledymyv41ah" class="animable"></path><path d="M189.7,387.78c1.18-.62,5.76.47,14.1-.95a9.55,9.55,0,0,0,4.49-1.83c2.18-1.77,3.82-4.62,5.13-7.06a36,36,0,0,0,3.59-8.72c.05-.18.31-.1.28.08-.31,1.73-.48,3.45-.94,5.16a32.82,32.82,0,0,1-1.72,4.68c-1.26,2.83-2.73,5.86-5.27,7.77s-6.37,2.38-9.59,2.61c-1.87.13-9.18-.07-10.17-1.11A.41.41,0,0,1,189.7,387.78Z" style="fill: rgb(38, 50, 56); transform-origin: 203.393px 379.337px;" id="elgy6tsr2nmyg" class="animable"></path><path d="M259.84,267.82c13.28-2.85,65.3-27.25,76.25-45.19,8.62-14.13,14.9-52.73,15.53-58.55,1.72-16-41.21-22.75-43.75-13.64-4.52,16.2-5,49.48-7.06,53.46-4.17,7.91-31.58,32.22-51.38,45.34C236.62,257.73,235.68,273,259.84,267.82Z" style="fill: rgb(211, 118, 106); transform-origin: 296.105px 207.605px;" id="el2pgj9phit3v" class="animable"></path><path d="M351.62,164.08c1.52-2.25,14.53-18.5,17.15-30.11,1.39-6.15,3.3-23.48-.33-24.8-3.32-1.19-5,3.43-5,3.43s.74-7.74-3.89-9.36-7.09,6.34-7.09,6.34.18-8-4.55-9.29-5.86,7.13-5.86,7.13.5-7.31-3.84-6.72c-5.22.7-4.63,14.29-7.35,20.71-.62,1.46-14.6,28.7-14.6,28.7Z" style="fill: rgb(211, 118, 106); transform-origin: 343.396px 132.118px;" id="el6kzc5jihybt" class="animable"></path><path d="M341.77,107.52c.41,10-1.13,14.43-6,23-.1.17.13.35.24.18,5.57-7.91,8.32-13.2,6.29-23.19C342.16,107,341.76,107,341.77,107.52Z" style="fill: rgb(38, 50, 56); transform-origin: 339.356px 118.949px;" id="el0a9x2i345qp" class="animable"></path><path d="M352.17,109.64c-.48,10.42-2.11,15.25-6.6,24.56-.06.13.16.26.23.13,5.16-8.77,7.78-14.11,6.9-24.58C352.65,109.28,352.2,109.17,352.17,109.64Z" style="fill: rgb(38, 50, 56); transform-origin: 349.214px 121.861px;" id="elb9xq9m6yn87" class="animable"></path><path d="M363.2,113c-1.19,10-2.76,15.42-8.27,23.91a.19.19,0,0,0,.3.22c6.46-8.11,8.46-14.8,8.27-24.06C363.49,112.48,363.27,112.41,363.2,113Z" style="fill: rgb(38, 50, 56); transform-origin: 359.213px 124.885px;" id="el1iba9dx6c7l" class="animable"></path><path d="M309.59,153.36s-3.82-8.93-2.76-17.86c.67-5.6,7.65-26.67,12.28-25.27,6,1.8,3.95,14.82,2.13,21.06,0,0,13.84,4.16,14.41,13.81S309.59,153.36,309.59,153.36Z" style="fill: rgb(211, 118, 106); transform-origin: 321.152px 131.796px;" id="elokdd3n8hjk" class="animable"></path><path d="M320.6,111.27c4.27,5.58,1.34,13.62,0,19.8a.58.58,0,0,0,.61.73c5.69,2.13,13.09,6.79,14.68,13a.15.15,0,0,0,.29,0c-.8-6.9-7.7-12.07-14.08-14,1.46-6.32,4-14.51-1.47-19.53A0,0,0,0,0,320.6,111.27Z" style="fill: rgb(38, 50, 56); transform-origin: 328.38px 128.091px;" id="elpt3piey9z5b" class="animable"></path><path d="M282.41,220.34l35.73,28.44s-37,18.07-56.47,21.66c-20.25,3.74-30.61-7.84-9.76-25.41C272.44,227.71,282.41,220.34,282.41,220.34Z" style="fill: rgb(0, 255, 136); transform-origin: 279.315px 245.741px;" id="elxc9cuer5lce" class="animable"></path><polyline points="325.28 247.35 314.28 253.73 278.15 219.81 288.11 212.38 324.33 246.58" style="fill: rgb(0, 255, 136); transform-origin: 301.715px 233.055px;" id="elmbk9y000mmo" class="animable"></polyline><path d="M310.18,249.15c-1-.72-1.89-1.59-2.81-2.4l-2.84-2.49c-1.92-1.68-3.82-3.4-5.7-5.13-3.76-3.45-7.54-6.88-11.25-10.4-1-1-2-1.93-3-2.92s-2-2.16-3.05-3.2c-.07-.07,0-.16.1-.1,1,.83,2,1.58,2.95,2.4s2,1.7,2.92,2.56q2.85,2.57,5.66,5.18c3.68,3.42,7.38,6.83,11,10.33,1,1,2,2,3,2.94s2.18,2,3.14,3.13A.07.07,0,0,1,310.18,249.15Z" style="fill: rgb(38, 50, 56); transform-origin: 295.91px 235.834px;" id="el9kgt5s4lsgq" class="animable"></path><path d="M277.31,368H175.55s8.63-72.49,35.85-119.53c10.18-17.58,38.42-14.48,44.07,3.88C264.19,280.74,277.6,367.66,277.31,368Z" style="fill: rgb(0, 255, 136); transform-origin: 226.432px 302.403px;" id="elo72l5vhkws" class="animable"></path><path d="M259.7,267c0-.36.06-.74.09-1.1s.06-1,.08-1.53c0-1,0-2,0-3.05,0-.09-.13-.08-.14,0-.09,1-.17,2-.21,3,0,.49,0,1,0,1.47a1.62,1.62,0,0,1,0,.22,66.4,66.4,0,0,0-2.14-8.41c0-.09-.19-.08-.18,0,.42,3.12,1.22,6.22,1.86,9.31s1.37,6.31,2.1,9.46a.08.08,0,0,0,.15,0C260.87,273.19,260.36,270.07,259.7,267Z" style="fill: rgb(38, 50, 56); transform-origin: 259.255px 266.979px;" id="elj2specfzi8" class="animable"></path><path d="M207.12,256c-12.72-4.76-56.74-28.42-65-47.76-6.47-15.25-10.92-62.41-10.7-68.27.63-16,44.08-16.49,45.27-7.11,2.11,16.69,1.58,57.75,3.07,62,3,8.44,22.66,28.42,40.33,44.29C231.56,249.4,230.26,264.65,207.12,256Z" style="fill: rgb(211, 118, 106); transform-origin: 179.279px 192.619px;" id="elddogkq133k9" class="animable"></path><path d="M133.36,143c-1.75-2.08-16.39-16.88-20.21-28.16-2-6-5.73-23-2.25-24.69,3.17-1.54,5.34,2.88,5.34,2.88s-1.55-7.62,2.89-9.71,7.7,5.56,7.7,5.56-1-7.94,3.57-9.7S137,85.67,137,85.67s-1.27-7.22,3.11-7.09c5.27.16,6.11,13.73,9.48,19.84.76,1.39,17.51,27,17.51,27Z" style="fill: rgb(211, 118, 106); transform-origin: 138.287px 110.789px;" id="elz200xfjq4b" class="animable"></path><path d="M137.24,85.74c.64,10,2.64,14.24,8.41,22.21.11.15-.09.36-.22.2-6.37-7.29-9.65-12.26-8.67-22.4C136.8,85.25,137.21,85.27,137.24,85.74Z" style="fill: rgb(38, 50, 56); transform-origin: 141.135px 96.7943px;" id="el3ht9gbd2n5c" class="animable"></path><path d="M127.12,88.94c1.57,10.31,3.7,14.94,9.13,23.74.08.12-.13.26-.21.14-6-8.18-9.22-13.22-9.43-23.72C126.6,88.63,127.05,88.47,127.12,88.94Z" style="fill: rgb(38, 50, 56); transform-origin: 131.439px 100.762px;" id="el574shplfc82" class="animable"></path><path d="M116.51,93.47c2.24,9.87,4.35,15,10.72,22.91a.18.18,0,0,1-.27.25c-7.28-7.38-10-13.83-10.74-23.06C116.16,92.94,116.37,92.85,116.51,93.47Z" style="fill: rgb(38, 50, 56); transform-origin: 121.744px 104.868px;" id="elvhvksqrrg7" class="animable"></path><path d="M176.73,132.86s1.72-12.17-1.82-22.94c-1.75-5.36-10.38-25.72-14.85-23.85-5.76,2.42-2.38,15.15.09,21.17,0,0-13.34,5.58-12.89,15.24S176.73,132.86,176.73,132.86Z" style="fill: rgb(211, 118, 106); transform-origin: 162.198px 109.405px;" id="ell2rfsgzzmqo" class="animable"></path><path d="M158.7,87.26c-3.67,6,.08,13.68,2,19.7a.57.57,0,0,1-.54.78c-5.43,2.72-12.31,8.13-13.23,14.47a.15.15,0,0,1-.3,0c.07-6.93,6.4-12.8,12.54-15.39-2.11-6.14-5.53-14-.57-19.58A0,0,0,0,1,158.7,87.26Z" style="fill: rgb(38, 50, 56); transform-origin: 153.685px 104.8px;" id="el36ee3dda1f8" class="animable"></path><path d="M191.72,205.74l-39.49,22.92s34,23.28,52.7,29.66c19.48,6.65,31.42-3.29,13.37-23.71C200.51,214.48,191.72,205.74,191.72,205.74Z" style="fill: rgb(0, 255, 136); transform-origin: 189.712px 233.056px;" id="ela17qcn1v9xl" class="animable"></path><polyline points="147.73 227.54 157.15 236.07 199.57 210.45 191.38 201.1 148.82 226.98" style="fill: rgb(0, 255, 136); transform-origin: 173.65px 218.585px;" id="el54el1imazkc" class="animable"></polyline><path d="M162.12,232.46c1.12-.5,2.18-1.17,3.25-1.77s2.2-1.23,3.3-1.84Q172,227,175.31,225c4.4-2.58,8.81-5.15,13.17-7.82,1.2-.73,2.4-1.46,3.57-2.23s2.43-1.69,3.66-2.49c.08,0,0-.15-.08-.11-1.1.61-2.27,1.12-3.38,1.73s-2.28,1.25-3.4,1.89c-2.21,1.28-4.42,2.57-6.61,3.88-4.31,2.58-8.64,5.15-12.9,7.82l-3.56,2.24c-1.24.78-2.56,1.51-3.72,2.4C162,232.38,162,232.49,162.12,232.46Z" style="fill: rgb(38, 50, 56); transform-origin: 178.882px 222.404px;" id="el3x3yyje9ay7" class="animable"></path><path d="M207.9,260a13.22,13.22,0,0,0-3-2.74c-2.33-1.61-5-2.43-7.61-3.46a.08.08,0,1,0-.05.15,26.82,26.82,0,0,1,6.87,4.38c1,.79,2,1.58,3,2.31a23,23,0,0,1,3.11,2.73c0,.05.15,0,.1-.08C209.62,262.16,208.75,261.1,207.9,260Z" style="fill: rgb(38, 50, 56); transform-origin: 203.752px 258.591px;" id="ellzhoo8m0nge" class="animable"></path><path d="M220.93,242.37a37,37,0,0,0,11,15.7,20.34,20.34,0,0,0,8.51,4.42,8.69,8.69,0,0,0,5-.19,9.78,9.78,0,0,0,3.79-3.12,18.38,18.38,0,0,0,2.65-4.89,43.78,43.78,0,0,0,1.76-6,.06.06,0,1,1,.11,0c-.41,1.94-.66,3.91-1.21,5.82a19.86,19.86,0,0,1-2.06,4.83,12,12,0,0,1-3.44,3.67,7.77,7.77,0,0,1-5,1.18,18.25,18.25,0,0,1-9.39-3.88,32.37,32.37,0,0,1-7-7.22,34.37,34.37,0,0,1-4.91-10.27C220.7,242.29,220.89,242.25,220.93,242.37Z" style="fill: rgb(38, 50, 56); transform-origin: 237.245px 253.066px;" id="elehx730pv89v" class="animable"></path><path d="M245,257.85c-6.24,1.14-16.36-8.84-20.15-16.7-.26-.54.83-6,1.84-12.74.59-4.09,1.16-8.65,1.37-12.85,0-.86,26,7.75,26,7.75s-3,8.67-3.37,16a9.68,9.68,0,0,0,.09,1.73c0,.08,0,.18,0,.29C251.17,244.62,251,256.74,245,257.85Z" style="fill: rgb(211, 118, 106); transform-origin: 239.436px 236.72px;" id="el3rppr4rwzcp" class="animable"></path><path d="M248.09,241.32a15.3,15.3,0,0,0,2.71,0,2.48,2.48,0,0,0,0-.29,9.68,9.68,0,0,1-.09-1.73c.33-7.32,3.37-16,3.37-16s-21.08-7-25.29-7.75C229.34,220.46,232.58,240.18,248.09,241.32Z" style="fill: rgb(38, 50, 56); transform-origin: 241.435px 228.465px;" id="eltwtijtgphwh" class="animable"></path><path d="M217.85,191.1c-.28,9.77,11.65,34.51,19.66,38.55,11.61,5.86,27.05,2.48,31.13-10.66,3.95-12.74-12.15-44.7-20.77-48C235.19,166.11,218.25,176.66,217.85,191.1Z" style="fill: rgb(211, 118, 106); transform-origin: 243.549px 201.102px;" id="elsk816qk5znj" class="animable"></path><path d="M247.29,199.22c0-.06-.09.14,0,.21.84,1.64,1.54,3.67.29,4.94,0,0,0,.12.06.09C249.31,203.32,248.36,200.64,247.29,199.22Z" style="fill: rgb(38, 50, 56); transform-origin: 247.898px 201.837px;" id="ell9r6fku92v" class="animable"></path><path d="M245,198.19c-2.78,1.07-.43,6.56,2.15,5.56S247.31,197.28,245,198.19Z" style="fill: rgb(38, 50, 56); transform-origin: 246.003px 200.98px;" id="elgzschu8yxg" class="animable"></path><path d="M257,194.84c0-.07.17,0,.19.1.68,1.72,1.74,3.58,3.52,3.48.06,0,.09.09,0,.1C258.76,199.06,257.37,196.58,257,194.84Z" style="fill: rgb(38, 50, 56); transform-origin: 258.883px 196.704px;" id="elahxd5lgs19r" class="animable"></path><path d="M257.76,192.42c2.65-1.38,5.22,4,2.76,5.28S255.55,193.57,257.76,192.42Z" style="fill: rgb(38, 50, 56); transform-origin: 259.21px 195.045px;" id="elrnodloq6y6" class="animable"></path><path d="M241.73,196.61a23.73,23.73,0,0,0,1.81-1.66,4,4,0,0,0,1.51-2,1.25,1.25,0,0,0-.79-1.32,3.11,3.11,0,0,0-3,.94,4.61,4.61,0,0,0-1.65,2.88A1.34,1.34,0,0,0,241.73,196.61Z" style="fill: rgb(38, 50, 56); transform-origin: 242.334px 194.206px;" id="elz2y2kt2g2jp" class="animable"></path><path d="M258.7,188.74a22.1,22.1,0,0,1-2.42.37,4,4,0,0,1-2.55-.09,1.29,1.29,0,0,1-.54-1.45,3.15,3.15,0,0,1,2.64-1.77,4.6,4.6,0,0,1,3.27.51A1.35,1.35,0,0,1,258.7,188.74Z" style="fill: rgb(38, 50, 56); transform-origin: 256.421px 187.486px;" id="elq488nux4skr" class="animable"></path><path d="M251.76,215.38a2.86,2.86,0,0,0,1.86.39,4.93,4.93,0,0,0,1.65-1.22.07.07,0,0,1,.11.06,2.5,2.5,0,0,1-1.76,1.85,2,2,0,0,1-2-.93C251.57,215.44,251.68,215.35,251.76,215.38Z" style="fill: rgb(38, 50, 56); transform-origin: 253.494px 215.51px;" id="el52351fa8nxc" class="animable"></path><path d="M251.37,209.53a6.3,6.3,0,0,0,5,.91,7.88,7.88,0,0,0,2.12-.79c.13-.07.26-.14.38-.22s.22-.13.34-.22a.44.44,0,0,0,.18-.52v0a.83.83,0,0,0-.09-.16v0l-.07-.14c-.52-1.33-1.5-3.26-1.5-3.26.58,0,3.49.08,3.15-.59C258.08,199,255,192.86,251.09,188a.18.18,0,0,0-.3.18c2.45,5.4,5.84,10.34,8.38,15.73a11,11,0,0,0-3.09.35c-.16.13,2,3.7,2.15,4.32a.09.09,0,0,1,0,.06c-2.08,1.23-4,1.28-6.79.71C251.29,209.26,251.21,209.43,251.37,209.53Z" style="fill: rgb(38, 50, 56); transform-origin: 255.845px 199.28px;" id="elcm37wpgp3mn" class="animable"></path><path d="M257.4,209.31a7.48,7.48,0,0,1-1.83,3.31,3.42,3.42,0,0,1-1.83.93c-1.51.22-2.08-1-2.29-2.18a8.32,8.32,0,0,1-.09-1.9A9.64,9.64,0,0,0,257.4,209.31Z" style="fill: rgb(38, 50, 56); transform-origin: 254.371px 211.443px;" id="elh3lx9800fpj" class="animable"></path><path d="M255.57,212.62a3.42,3.42,0,0,1-1.83.93c-1.51.22-2.08-1-2.29-2.18C253,210.89,254.84,211.26,255.57,212.62Z" style="fill: rgb(255, 151, 184); transform-origin: 253.51px 212.373px;" id="elt4cil42akcp" class="animable"></path><path d="M254.64,177.19a15,15,0,0,1-3.56,3.75c-7.84,6.11-26.77,6.51-26.77,6.51a64.62,64.62,0,0,1,4.21,18.7,5.85,5.85,0,0,1-3.1,5.29s-1.14-1.15-2.76-3c-2.94-6.66-4.93-13.29-4.81-17.34.4-14.44,17.34-25,30-20.12C249.84,171.74,252.21,174,254.64,177.19Z" style="fill: rgb(38, 50, 56); transform-origin: 236.242px 190.606px;" id="eli1v9z2yury" class="animable"></path><path d="M253.38,180.89a31.32,31.32,0,0,1-12.15,5.25,63.83,63.83,0,0,1-13.79,1.38c-2.69,0-5.39-.1-8.08-.25-.08,0-.09.12,0,.13a70,70,0,0,0,14.67.93A35.07,35.07,0,0,0,247.17,185a29.49,29.49,0,0,0,6.27-4.08A0,0,0,1,0,253.38,180.89Z" style="fill: rgb(38, 50, 56); transform-origin: 236.368px 184.641px;" id="elr47inx1x8wo" class="animable"></path><path d="M229.61,210.93s-8.34-6.64-11.52-3.42,4.82,14,9.77,14.38a4.73,4.73,0,0,0,5.36-4.24Z" style="fill: rgb(211, 118, 106); transform-origin: 225.292px 214.282px;" id="elkvorqa9rpwf" class="animable"></path><path d="M220.46,210.55a.07.07,0,0,0,0,.13c3.5.34,6,2.75,8.06,5.42-1.28-.88-2.73-1.14-3.95.42-.07.09,0,.19.13.15a2.9,2.9,0,0,1,3.36.06,13.82,13.82,0,0,1,2.21,2.05c.23.23.69-.07.49-.36l-.05-.06C229.61,214.35,224.86,209.68,220.46,210.55Z" style="fill: rgb(38, 50, 56); transform-origin: 225.613px 214.653px;" id="elxa939hlaxbk" class="animable"></path><path d="M216.71,200.18c-.32-.1-12-5.61-13.38-5.94s-8.23,4.48-11.24,2-6.77-8.71-4.44-13.58,6-8.19,6-8.76-6.48-9.23-2.49-15.39,16.16-2.4,16.58-2.63-.14-6.8,3.88-9.31,11.5,1.85,12.51,1.2,6.33-4.35,12.38-3.41,5.62,10.72,5,12.43,6.27,12.09,6.27,12.09Z" style="fill: rgb(235, 235, 235); transform-origin: 217.352px 172.194px;" id="elln33dytefqm" class="animable"></path><path d="M218.12,193.89a5.66,5.66,0,0,1-1.76-.73c-.59-.31-1.17-.61-1.76-.89a25.71,25.71,0,0,0-3.7-1.38,5,5,0,0,0-3.18-.2,2.29,2.29,0,0,0-1.06.86,2.26,2.26,0,0,0-.43.79,7.12,7.12,0,0,0,0,.8c0,.08.13.08.12,0a1.4,1.4,0,0,1,.18-1,3.86,3.86,0,0,1,.54-.6,2.3,2.3,0,0,1,1.59-.52,9.57,9.57,0,0,1,3.18.86l3.2,1.18a8.41,8.41,0,0,0,3.06,1C218.19,194,218.21,193.9,218.12,193.89Z" style="fill: rgb(199, 199, 199); transform-origin: 212.199px 192.29px;" id="el2v3jz7ptaec" class="animable"></path><path d="M220.31,192.43l-7.25-3.62a36.08,36.08,0,0,1-7.05-4.2c-.06-.05-.14,0-.08.09a36.39,36.39,0,0,0,6.67,4.75,51,51,0,0,0,7.66,3.12C220.33,192.59,220.38,192.47,220.31,192.43Z" style="fill: rgb(199, 199, 199); transform-origin: 213.126px 188.581px;" id="el9el5vvlt7at" class="animable"></path><path d="M223.94,185.66c-1.88-1.35-3.9-2.52-5.9-3.69a22.89,22.89,0,0,0-5.6-2.39.06.06,0,0,0,0,.11,29.55,29.55,0,0,1,5.41,3c1.93,1.16,3.88,2.35,5.91,3.33A.22.22,0,0,0,223.94,185.66Z" style="fill: rgb(199, 199, 199); transform-origin: 218.197px 182.8px;" id="ell8obark8bot" class="animable"></path><path d="M223,163.71a2.36,2.36,0,0,0-2.63,2.53c.1,1.75,1.35,3.4,2.36,4.77a23.09,23.09,0,0,0,3.82,4,23.6,23.6,0,0,0,5.31,3.22c.08,0,.13-.06.06-.1a27.41,27.41,0,0,1-7.33-6.37,25.44,25.44,0,0,1-2.71-4c-.64-1.18-1.07-3.45.8-3.76s3.18,1.39,4.72,1.94c0,0,.05,0,0-.06C225.86,165.28,224.76,163.88,223,163.71Z" style="fill: rgb(199, 199, 199); transform-origin: 226.158px 170.962px;" id="elzzmr3f0sbim" class="animable"></path><path d="M236.51,155.37a12.17,12.17,0,0,0,1.13,7.84A21.25,21.25,0,0,0,240,167a23.26,23.26,0,0,0,3,3.55.06.06,0,0,0,.1-.07c-.73-1.27-1.74-2.37-2.49-3.62a28.45,28.45,0,0,1-2-3.91,26.49,26.49,0,0,1-1.2-3.69,17.62,17.62,0,0,1-.54-3.89A.17.17,0,0,0,236.51,155.37Z" style="fill: rgb(199, 199, 199); transform-origin: 239.703px 162.883px;" id="eldtivnjggif" class="animable"></path><path d="M235.54,167.18a49.22,49.22,0,0,0-4.86-5,.18.18,0,0,0-.25.26c1.56,1.69,3,3.49,4.49,5.28s2.79,3.66,4.34,5.33c.05.05.12,0,.09-.08A26.22,26.22,0,0,0,235.54,167.18Z" style="fill: rgb(199, 199, 199); transform-origin: 234.866px 167.6px;" id="elkuh8eiysh0s" class="animable"></path><path d="M220.81,204.29c-1.2-1.28,6.75-22,31.16-31,1.14-.42-4.78-8.28-6.36-8.41s-32.51,13.69-32.69,34.53C212.91,200.85,220.81,204.29,220.81,204.29Z" style="fill: rgb(219, 219, 219); transform-origin: 232.517px 184.585px;" id="el7hxgbd6lxcg" class="animable"></path><path d="M252.4,245.51c.73.1,2.39,2.94,2.78,3.57s27.74,121.47,28.26,126.69S294,426,294,426H179.6s10.72-70.07,10.72-71.26c0,0-13.65-1.19-13.5-1.59s2.27-9.64,2.27-9.64l13.21-1.59s19.48-68.29,20.8-74.36,6.55-26.15,8.39-29a24,24,0,0,1,3.31-1s.9,26.68,1.08,26.68,26.59,3.83,26.59,3.83Z" style="fill: rgb(235, 235, 235); transform-origin: 235.409px 331.78px;" id="eltpt69ev62y" class="animable"></path></g><g id="freepik--Pizza--inject-399" class="animable" style="transform-origin: 240.002px 94.0633px;"><path d="M249.64,88.14s40.9-3.66,69,8.26c20.89,8.86,39.88,33.1,26.33,42.84-21.08,15.15-90.55-28.58-90.55-28.58s-43.11.65-77.62-10.82-68-46.82-28.4-53.51S249.64,88.14,249.64,88.14Z" style="fill: rgb(0, 255, 136); transform-origin: 240.002px 94.0633px;" id="elk4nl4q2i5mh" class="animable"></path><g id="ellm59zrjxnld"><path d="M133,68.41v0c6.59,11.91,25,25.18,43.79,31.41,34.51,11.46,77.62,10.82,77.62,10.82-12.11-8-44.44-37.72-77.27-50.59S128.71,53.22,133,68.41Z" style="opacity: 0.1; transform-origin: 193.356px 81.8403px;" class="animable"></path></g><g id="elnh9up52uoht"><path d="M249.65,88.14c20.22,15.46,69.22,46.49,84.93,37.88,7.17-3.93,4.56-12.18-.4-20a62.92,62.92,0,0,0-15.54-9.66C290.54,84.47,249.65,88.14,249.65,88.14Z" style="opacity: 0.1; transform-origin: 294.324px 107.554px;" class="animable"></path></g></g><g id="freepik--Table--inject-399" class="animable" style="transform-origin: 250px 426px;"><polygon points="30.67 426 85.5 425.76 140.34 425.67 250 425.5 359.66 425.67 414.5 425.75 469.33 426 414.5 426.24 359.66 426.33 250 426.5 140.34 426.33 85.5 426.24 30.67 426" style="fill: rgb(38, 50, 56); transform-origin: 250px 426px;" id="elymym2qm02i" class="animable"></polygon></g><g id="freepik--Shadow--inject-399" class="animable" style="transform-origin: 250px 457.14px;"><ellipse cx="250" cy="457.14" rx="164.74" ry="13.79" style="fill: rgb(235, 235, 235); transform-origin: 250px 457.14px;" id="elr55jnbad2g" class="animable"></ellipse></g><g id="freepik--Tools--inject-399" class="animable" style="transform-origin: 172.195px 412.57px;"><path d="M121.4,377.7v42.72c0,3.05-1.14,5.55-2.53,5.55l-16.44,0H86c-1.39,0-2.51-2.47-2.51-5.52V377.7c0-3.06,1.12-5.53,2.51-5.53h1.52v-4h14.94v0l14.92,0v4h1.52C120.26,372.17,121.4,374.64,121.4,377.7Z" style="fill: rgb(0, 255, 136); transform-origin: 102.445px 397.07px;" id="elhdm9jlcof6" class="animable"></path><rect x="86.42" y="361.6" width="31.97" height="7.19" style="fill: rgb(55, 71, 79); transform-origin: 102.405px 365.195px;" id="el637kxunk3l8" class="animable"></rect><rect x="83.46" y="386.75" width="37.94" height="26.99" style="fill: rgb(235, 235, 235); transform-origin: 102.43px 400.245px;" id="eldc33yt3fhap" class="animable"></rect><path d="M79.24,418.44c0,5.6-2.1,7.53-3.17,7.53l-9.41,0H57.84c-1.08,0-3.19-1.92-3.2-7.52,0-6.65,4.75-10.63,4.75-14.26,0-2.37-2.29-9.72-1.31-9.72l17.65,0c1,0-1.28,7.35-1.28,9.71C74.46,407.83,79.23,411.8,79.24,418.44Z" style="fill: rgb(235, 235, 235); transform-origin: 66.94px 410.22px;" id="elhz21fg5deie" class="animable"></path><g id="el3d05inmwcup"><path d="M59.46,389.55H74.35a2.15,2.15,0,0,1,2.15,2.15v4.37a.15.15,0,0,1-.15.15H57.46a.15.15,0,0,1-.15-.15V391.7a2.15,2.15,0,0,1,2.15-2.15Z" style="fill: rgb(55, 71, 79); transform-origin: 66.905px 392.885px; transform: rotate(-0.08deg);" class="animable"></path></g><g id="elrucnwgrby88"><rect x="125.18" y="424.91" width="15.15" height="5.72" style="fill: rgb(166, 166, 166); transform-origin: 132.755px 427.77px; transform: rotate(178.87deg);" class="animable"></rect></g><g id="eldjt6dvve22b"><circle cx="149.84" cy="428.67" r="17.6" style="fill: rgb(199, 199, 199); transform-origin: 149.84px 428.67px; transform: rotate(-45.64deg);" class="animable"></circle></g><g id="elk9p69i3sqf"><circle cx="149.84" cy="428.67" r="15.11" style="fill: rgb(219, 219, 219); transform-origin: 149.84px 428.67px; transform: rotate(-85.45deg);" class="animable"></circle></g><path d="M146.68,429.36a3.24,3.24,0,1,0,2.47-3.86A3.23,3.23,0,0,0,146.68,429.36Z" style="fill: rgb(166, 166, 166); transform-origin: 149.844px 428.665px;" id="elqwg92p0ijgo" class="animable"></path><path d="M148.92,409.54c1.11,0,.48-3-.84-3.81s-10.5.33-13.91,2.3c-4,2.29-8.8,10.5-9.85,14.71-.48,1.9-17.41-.59-27-.35-12.76.31-25.69,5-31.15,7-1.56.56-1.65,3-.28,4C69,435.43,86.86,435.86,98,435s24.6-4.17,25.83-3.76,2.71,11.14,10.64,15c2.31,1.14,3.68-1.55,3.45-2.07s-10.17-7.52-6.7-20.66A18.85,18.85,0,0,1,148.92,409.54Z" style="fill: rgb(0, 255, 136); transform-origin: 107.209px 425.993px;" id="elbeifcswg1nq" class="animable"></path><g id="ela9yk63hh1w"><path d="M148.92,409.54c1.11,0,.48-3-.84-3.81s-10.5.33-13.91,2.3c-4,2.29-8.8,10.5-9.85,14.71-.48,1.9-17.41-.59-27-.35-12.76.31-25.69,5-31.15,7-1.56.56-1.65,3-.28,4C69,435.43,86.86,435.86,98,435s24.6-4.17,25.83-3.76,2.71,11.14,10.64,15c2.31,1.14,3.68-1.55,3.45-2.07s-10.17-7.52-6.7-20.66A18.85,18.85,0,0,1,148.92,409.54Z" style="opacity: 0.1; transform-origin: 107.209px 425.993px;" class="animable"></path></g><rect x="169.05" y="441.24" width="91.72" height="22.3" style="fill: rgb(0, 255, 136); transform-origin: 214.91px 452.39px;" id="elygg65f713s" class="animable"></rect><path d="M169.05,449.74V455h-6.9c-2.75,0-13.27,3.68-16.85,2.42-5.22-1.83-5.22-5.07-5.22-5.07s0-3.23,5.22-5.05c3.58-1.26,14.1,2.41,16.85,2.41Z" style="fill: rgb(0, 255, 136); transform-origin: 154.565px 452.36px;" id="elvzn89m7z53" class="animable"></path><g id="elw5k98cmzvy9"><path d="M169.05,449.74V455h-3.41l-.56-5.29Z" style="opacity: 0.2; transform-origin: 167.065px 452.355px;" class="animable"></path></g><path d="M260.78,455v-5.29h6.9c2.75,0,13.27-3.67,16.85-2.41,5.22,1.82,5.22,5.06,5.22,5.06s0,3.23-5.22,5.06c-3.58,1.26-14.1-2.42-16.85-2.42Z" style="fill: rgb(0, 255, 136); transform-origin: 275.265px 452.36px;" id="el296zwhxjpjz" class="animable"></path><g id="elwc4sgk2n9wd"><path d="M264.64,455h-3.86v-5.29h3.3Z" style="opacity: 0.2; transform-origin: 262.71px 452.355px;" class="animable"></path></g></g><g id="freepik--Tomatoes--inject-399" class="animable" style="transform-origin: 320.132px 432.25px;"><path d="M280,431.35c3.44,11.2,14,9.77,17,8.85s12.52-5.65,9.08-16.85-14.71-8.62-16.71-8C287,416,276.51,420.14,280,431.35Z" style="fill: rgb(0, 255, 136); transform-origin: 293.057px 427.732px;" id="elgdcvkyf0l4g" class="animable"></path><g id="el03syh2zbcjvi"><path d="M280,431.35c3.44,11.2,14,9.77,17,8.85s12.52-5.65,9.08-16.85-14.71-8.62-16.71-8C287,416,276.51,420.14,280,431.35Z" style="opacity: 0.1; transform-origin: 293.057px 427.732px;" class="animable"></path></g><path d="M290.28,416.87s.46,4.22,7.86,1.7C298.14,418.57,293.14,413.24,290.28,416.87Z" style="fill: rgb(55, 71, 79); transform-origin: 294.21px 417.488px;" id="ela4k0xgtgaer" class="animable"></path><path d="M291,418.62s3.48.23,2.49-6.11C293.48,412.51,288.46,415.8,291,418.62Z" style="fill: rgb(55, 71, 79); transform-origin: 291.975px 415.566px;" id="el4nact82718u" class="animable"></path><path d="M290.71,417.5s-1.21,3.27-6.6-.22C284.11,417.28,289.16,414,290.71,417.5Z" style="fill: rgb(55, 71, 79); transform-origin: 287.41px 417.388px;" id="ele4vousjelll" class="animable"></path><path d="M290.48,416.67s-3.24,2.74,3,7.47C293.46,424.14,295.09,417,290.48,416.67Z" style="fill: rgb(55, 71, 79); transform-origin: 291.691px 420.405px;" id="eld3fdimrm8pt" class="animable"></path><path d="M290.14,417.28s-4.67-1.31-4.06,6.68C286.08,424,293.23,421.47,290.14,417.28Z" style="fill: rgb(55, 71, 79); transform-origin: 288.47px 420.58px;" id="el04ph4jk6rfr" class="animable"></path><path d="M290.93,418.26a8.37,8.37,0,0,0-2.91-7.13,2.67,2.67,0,0,0-2.46,2.1s4,2.23,4.26,5.86l.93-.56" style="fill: rgb(55, 71, 79); transform-origin: 288.262px 415.11px;" id="elugjhcl267n" class="animable"></path><path d="M306.13,452.59c11.18,3.54,16-5.94,16.93-8.93s2.47-13.51-8.71-17.05-15.45,7.21-16.08,9.21C297.56,438.06,295,449.06,306.13,452.59Z" style="fill: rgb(0, 255, 136); transform-origin: 310.606px 439.635px;" id="eltntdgqv2xza" class="animable"></path><path d="M300.09,435.87s3.73,2,5.86-5.51C306,430.36,298.73,431.45,300.09,435.87Z" style="fill: rgb(55, 71, 79); transform-origin: 302.935px 433.236px;" id="el6nao7r9sl36" class="animable"></path><path d="M301.94,436.28s2.16-2.74-3.62-5.53C298.32,430.75,298.17,436.75,301.94,436.28Z" style="fill: rgb(55, 71, 79); transform-origin: 300.327px 433.528px;" id="elo4041w9tbdt" class="animable"></path><path d="M300.85,435.87s2,2.85-3.93,5.3C296.92,441.17,297.13,435.18,300.85,435.87Z" style="fill: rgb(55, 71, 79); transform-origin: 299.047px 438.492px;" id="elvs1wz33jgho" class="animable"></path><path d="M300,435.59s.42,4.22,7.84,1.79C307.88,437.38,302.94,432,300,435.59Z" style="fill: rgb(55, 71, 79); transform-origin: 303.92px 436.245px;" id="elfmcv1jq29hf" class="animable"></path><path d="M300.35,436.22s-3.74,3.09,3.19,7.13C303.54,443.35,305.55,436.05,300.35,436.22Z" style="fill: rgb(55, 71, 79); transform-origin: 301.632px 439.784px;" id="elin50fj5jrha" class="animable"></path><path d="M301.6,436.13a8.35,8.35,0,0,0-7.52-1.66,2.69,2.69,0,0,0,.33,3.22s4.1-2,7.24-.18l.07-1.08" style="fill: rgb(55, 71, 79); transform-origin: 297.706px 435.938px;" id="elerws0dvk1sv" class="animable"></path><path d="M357.87,444.68c-7.48,9-16.65,3.68-19.07,1.67s-9.4-10-1.93-19,16.89-2.33,18.5-1C357.19,427.82,365.34,435.64,357.87,444.68Z" style="fill: rgb(0, 255, 136); transform-origin: 347.241px 436.236px;" id="elgl85whldn3p" class="animable"></path><path d="M353.87,427.35s-2,3.72-7.91-1.45C346,425.9,352.62,422.9,353.87,427.35Z" style="fill: rgb(55, 71, 79); transform-origin: 349.915px 426.778px;" id="eliqm683ywfb" class="animable"></path><path d="M352.54,428.69s-3.3-1.12,0-6.6C352.58,422.09,356,427.05,352.54,428.69Z" style="fill: rgb(55, 71, 79); transform-origin: 352.58px 425.39px;" id="elcm1j0ofbqm4" class="animable"></path><path d="M353.23,427.77s-.13,3.48,6.18,2.32C359.41,430.09,356,425.16,353.23,427.77Z" style="fill: rgb(55, 71, 79); transform-origin: 356.32px 428.667px;" id="elfdh463tltqa" class="animable"></path><path d="M353.76,427.09s1.94,3.77-5.62,5.76C348.14,432.85,349.37,425.64,353.76,427.09Z" style="fill: rgb(55, 71, 79); transform-origin: 351.062px 429.874px;" id="elotbe381ym2b" class="animable"></path><path d="M353.84,427.78s4.82.58,1.19,7.72C355,435.5,349.38,430.46,353.84,427.78Z" style="fill: rgb(55, 71, 79); transform-origin: 354.252px 431.64px;" id="el9g2801rnuzg" class="animable"></path><path d="M352.74,428.39a8.37,8.37,0,0,1,5.42-5.48,2.69,2.69,0,0,1,1.47,2.89s-4.53.53-6.18,3.77l-.65-.87" style="fill: rgb(55, 71, 79); transform-origin: 356.206px 426.24px;" id="el2fg87ewdoj5" class="animable"></path></g><g id="freepik--Oil--inject-399" class="animable" style="transform-origin: 419.729px 405.265px;"><path d="M442.68,412.11,438.84,409c2.93-3.64,6.27-8.3,6.82-9.77-.57-3.69-4-15.86-6.22-17.57H425.11v-4.92h14.61c7,0,10.84,22,10.87,22.19C450.7,399.82,451,401.84,442.68,412.11Zm3-13Z" style="fill: rgb(235, 235, 235); transform-origin: 437.867px 394.425px;" id="elggu1sl7y5rv" class="animable"></path><path d="M417.74,444.7c-24.84,0-30.85-16.15-28.4-27.48s19.79-21,20-24.73,0-20.31-.89-21.44-6.57-3.33-8.11-3.33-1.54-1.89,0-1.89H429c1.54,0,1.54,1.89,0,1.89s-2.51,1.9-2.78,3.91c-.2,1.4-.48,17.78-.07,20.86.5,3.66,17.54,13.41,20,24.73S442.57,444.7,417.74,444.7Z" style="fill: rgb(235, 235, 235); transform-origin: 417.746px 405.265px;" id="elx9gxolqka1" class="animable"></path><path d="M417.12,440.87c-20.88,0-25.93-13.57-23.87-23.09s19.62-20.17,19.28-23.26c-.06-.61-.11-12.72-.14-14H422.8c0,1.32.07,13.45.15,14,.41,3.08,16,13.73,18.05,23.26S438,440.87,417.12,440.87Z" style="fill: rgb(0, 255, 136); transform-origin: 417.123px 410.695px;" id="elhzlmzw16y0u" class="animable"></path></g><defs>     <filter id="active" height="200%">         <feMorphology in="SourceAlpha" result="DILATED" operator="dilate" radius="2"></feMorphology>                <feFlood flood-color="#32DFEC" flood-opacity="1" result="PINK"></feFlood>        <feComposite in="PINK" in2="DILATED" operator="in" result="OUTLINE"></feComposite>        <feMerge>            <feMergeNode in="OUTLINE"></feMergeNode>            <feMergeNode in="SourceGraphic"></feMergeNode>        </feMerge>    </filter>    <filter id="hover" height="200%">        <feMorphology in="SourceAlpha" result="DILATED" operator="dilate" radius="2"></feMorphology>                <feFlood flood-color="#ff0000" flood-opacity="0.5" result="PINK"></feFlood>        <feComposite in="PINK" in2="DILATED" operator="in" result="OUTLINE"></feComposite>        <feMerge>            <feMergeNode in="OUTLINE"></feMergeNode>            <feMergeNode in="SourceGraphic"></feMergeNode>        </feMerge>            <feColorMatrix type="matrix" values="0   0   0   0   0                0   1   0   0   0                0   0   0   0   0                0   0   0   1   0 "></feColorMatrix>    </filter></defs></svg>